<?xml version="1.0" encoding="utf-8"?>
<svg version="1.1" xmlns:xlink="http://www.w3.org/1999/xlink" width="443px" height="269px" xmlns="http://www.w3.org/2000/svg">
  <g transform="matrix(1 0 0 1 -436 -388 )">
    <path d="M 436 388  L 879 388  L 879 657  L 436 657  L 436 388  " fill-rule="nonzero" fill="#cccccc" stroke="none" />
    <path d="M 455 407  L 860 407  L 860 638  L 455 638  L 455 407  " fill-rule="nonzero" fill="#ffffff" stroke="none" />
    <path d="M 686.5350000000001 468.70000000000005  C 675.2370000000001 468.70000000000005  666.36 459.82300000000004  666.36 448.52500000000003  C 666.36 437.22700000000003  675.2370000000001 428.35  686.5350000000001 428.35  C 697.8330000000001 428.35  706.71 437.22700000000003  706.71 448.52500000000003  C 706.71 459.82300000000004  697.8330000000001 468.70000000000005  686.5350000000001 468.70000000000005  " fill-rule="nonzero" fill="#cccccc" stroke="none" />
    <path d="M 462 632  L 462 512.1  L 560 457.6  L 697.2 552.5751693002258  L 775.6 490.29999999999995  L 854 552.5751693002258  L 854 632  L 462 632  " fill-rule="nonzero" fill="#169bd5" stroke="none" />
  </g>
</svg>