<?xml version="1.0" encoding="utf-8"?>
<svg version="1.1" xmlns:xlink="http://www.w3.org/1999/xlink" width="50px" height="49px" xmlns="http://www.w3.org/2000/svg">
  <g transform="matrix(1 0 0 1 -1150 -160 )">
    <path d="M 12.451171875 3.366911274182789  C 16.28146701388889 1.1223037580609279  20.464409722222225 0  25 0  C 29.53559027777778 0  33.718532986111114 1.1223037580609279  37.548828125 3.366911274182789  C 41.37912326388889 5.611518790304645  44.411892361111114 8.656993551256392  46.64713541666667 12.503335557038023  C 48.882378472222214 16.349677562819654  50 20.550144540804975  50 25.104736490993997  C 50 30.57460529241716  48.410373263888886 35.494218367800755  45.23111979166667 39.86357571714476  C 42.05186631944445 44.232933066488776  37.94487847222223 47.256615521458755  32.91015625 48.934623082054706  C 32.32421875000001 49.04358461196353  31.890190972222225 48.96731154102735  31.608072916666668 48.70580386924617  C 31.32595486111111 48.44429619746498  31.184895833333332 48.1174116077385  31.184895833333332 47.72515010006671  C 31.184895833333332 47.65977318212141  31.190321180555557 46.82621747831888  31.201171875 45.224482988659105  C 31.212022569444446 43.622748498999336  31.217447916666668 42.157215921725594  31.217447916666668 40.827885256837895  C 31.217447916666668 38.71403157660662  30.653211805555557 37.166777851901266  29.524739583333332 36.18612408272181  C 30.76171875 36.055370246831224  31.873914930555557 35.85923949299533  32.861328125 35.59773182121415  C 33.84874131944445 35.33622414943296  34.86870659722223 34.911274182788524  35.92122395833333 34.32288192128085  C 36.97374131944445 33.73448965977318  37.85264756944445 33.009895485879476  38.55794270833333 32.14909939959973  C 39.26323784722223 31.288303313319986  39.838324652777786 30.144207249277294  40.283203125 28.716811207471643  C 40.72808159722223 27.289415165666  40.95052083333333 25.649544140538133  40.95052083333333 23.79719813208806  C 40.95052083333333 21.203913720257948  40.09331597222223 18.959306204136094  38.37890625 17.063375583722483  C 39.18185763888889 15.080275739381811  39.09505208333333 12.857460529241717  38.11848958333333 10.394929953302201  C 37.51085069444445 10.198799199466313  36.63194444444445 10.318656882366016  35.48177083333333 10.754503002001336  C 34.33159722222223 11.190349121636645  33.33333333333333 11.669779853235493  32.48697916666667 12.192795196797864  L 31.25 12.97731821214143  C 29.231770833333336 12.41071825661552  27.148437500000007 12.127418278852568  25 12.127418278852568  C 22.8515625 12.127418278852568  20.768229166666664 12.41071825661552  18.75 12.97731821214143  C 18.40277777777778 12.737602846342003  17.941623263888893 12.443406715588164  17.366536458333336 12.094729819879918  C 16.79144965277778 11.746052924171666  15.885416666666668 11.326551034022684  14.6484375 10.836224149432956  C 13.411458333333334 10.34589726484323  12.489149305555557 10.198799199466313  11.881510416666668 10.394929953302201  C 10.904947916666668 12.857460529241717  10.818142361111112 15.080275739381811  11.62109375 17.063375583722483  C 9.906684027777779 18.959306204136094  9.049479166666668 21.203913720257948  9.049479166666668 23.79719813208806  C 9.049479166666668 25.649544140538133  9.271918402777779 27.28396708917056  9.716796875 28.700466977985325  C 10.161675347222223 30.116966866800087  10.731336805555557 31.261062930842783  11.42578125 32.13275517011341  C 12.120225694444446 33.00444740938403  12.993706597222223 33.73448965977318  14.046223958333334 34.32288192128085  C 15.098741319444445 34.911274182788524  16.118706597222225 35.33622414943296  17.106119791666664 35.59773182121415  C 18.093532986111114 35.85923949299533  19.205729166666664 36.055370246831224  20.442708333333336 36.18612408272181  C 19.596354166666664 36.97064709806538  19.064670138888893 38.09295085612631  18.84765625 39.5530353569046  C 18.391927083333336 39.77095841672226  17.903645833333336 39.9344007115855  17.3828125 40.04336224149433  C 16.861979166666664 40.15232377140316  16.243489583333336 40.20680453635757  15.52734375 40.20680453635757  C 14.811197916666668 40.20680453635757  14.100477430555557 39.97253724705359  13.395182291666666 39.50400266844563  C 12.689887152777779 39.03546808983767  12.087673611111112 38.3544585279075  11.588541666666668 37.460973982655105  C 11.176215277777779 36.763620191238594  10.649956597222223 36.1970202357127  10.009765625 35.761174116077385  C 9.369574652777779 35.32532799644207  8.832465277777779 35.06382032466088  8.3984375 34.976651100733825  L 7.747395833333333 34.878585723815874  C 7.291666666666667 34.878585723815874  6.976996527777778 34.927618412274846  6.803385416666667 35.0256837891928  C 6.629774305555556 35.12374916611074  6.575520833333334 35.249054925505895  6.640625 35.40160106737825  C 6.705729166666667 35.55414720925061  6.803385416666667 35.70669335112297  6.93359375 35.85923949299533  C 7.063802083333334 36.011785634867685  7.204861111111112 36.14253947075828  7.356770833333333 36.25150100066711  L 7.584635416666667 36.41494329553036  C 8.062065972222223 36.63286635534801  8.534071180555557 37.04692016900156  9.000651041666668 37.65710473649099  C 9.467230902777779 38.26728930398043  9.809027777777779 38.82299310651545  10.026041666666668 39.32421614409606  L 10.3515625 40.07605070046698  C 10.633680555555557 40.90415832777407  11.111111111111112 41.574271736713364  11.783854166666668 42.08639092728485  C 12.456597222222225 42.59851011785636  13.183593750000004 42.92539470758284  13.96484375 43.06704469646431  C 14.746093750000004 43.20869468534578  15.500217013888893 43.284967756281965  16.227213541666664 43.29586390927285  C 16.954210069444446 43.30676006226373  17.556423611111114 43.26862352679564  18.033854166666664 43.18145430286858  L 18.782552083333336 43.050700466977986  C 18.782552083333336 43.87880809428508  18.787977430555557 44.8431176339782  18.798828125 45.94362908605737  C 18.809678819444446 47.04414053813654  18.815104166666664 47.63798087613964  18.815104166666664 47.72515010006671  C 18.815104166666664 48.1174116077385  18.674045138888893 48.44429619746498  18.391927083333336 48.70580386924617  C 18.10980902777778 48.96731154102735  17.67578125 49.04358461196353  17.08984375 48.934623082054706  C 12.055121527777779 47.256615521458755  7.948133680555556 44.232933066488776  4.768880208333334 39.86357571714476  C 1.589626736111111 35.494218367800755  0 30.57460529241716  0 25.104736490993997  C 0 20.550144540804975  1.1176215277777777 16.349677562819654  3.3528645833333335 12.503335557038023  C 5.588107638888889 8.656993551256392  8.620876736111112 5.611518790304645  12.451171875 3.366911274182789  Z M 9.049479166666668 36.12074716477652  C 9.244791666666668 36.25150100066711  9.385850694444446 36.22970869468535  9.47265625 36.055370246831224  C 9.537760416666668 35.90282410495886  9.461805555555557 35.772070269068266  9.244791666666668 35.66310873915944  C 9.027777777777779 35.59773182121415  8.88671875 35.6195241271959  8.821614583333332 35.728485657104734  C 8.756510416666668 35.88103179897709  8.832465277777779 36.011785634867685  9.049479166666668 36.12074716477652  Z M 9.9609375 37.06871247498332  C 10.17795138888889 37.28663553480097  10.3515625 37.31932399377362  10.481770833333332 37.166777851901266  C 10.633680555555557 37.05781632199243  10.611979166666668 36.883477874138315  10.416666666666668 36.643762508338895  C 10.199652777777779 36.447631754503  10.026041666666668 36.41494329553036  9.895833333333332 36.545697131420944  C 9.743923611111112 36.65465866132977  9.765625 36.828997109183895  9.9609375 37.06871247498332  Z M 10.904947916666668 38.40893929286191  C 11.100260416666668 38.69223927062486  11.284722222222223 38.76851234156104  11.458333333333332 38.63775850567045  C 11.653645833333332 38.485212363798084  11.653645833333332 38.278185456971315  11.458333333333332 38.016677785190126  C 11.284722222222223 37.73337780742717  11.100260416666668 37.668000889481874  10.904947916666668 37.82054703135423  C 10.709635416666668 37.92950856126306  10.709635416666668 38.12563931509895  10.904947916666668 38.40893929286191  Z M 12.174479166666668 39.912608405603734  C 12.434895833333332 40.17411607738492  12.651909722222223 40.20680453635757  12.825520833333334 40.010673782521685  C 12.999131944444445 39.83633533466756  12.955729166666668 39.62930842784078  12.6953125 39.38959306204136  C 12.434895833333332 39.12808539026017  12.217881944444446 39.095396931287524  12.044270833333332 39.29152768512341  C 11.848958333333332 39.46586613297754  11.892361111111112 39.67289303980431  12.174479166666668 39.912608405603734  Z M 14.0625 41.02401601067378  C 14.388020833333334 41.15476984656438  14.594184027777779 41.08939292861908  14.680989583333334 40.827885256837895  C 14.74609375 40.58816989103847  14.605034722222223 40.41383144318434  14.2578125 40.30486991327552  C 13.932291666666668 40.217700689348455  13.726128472222223 40.293973760284636  13.639322916666666 40.533689126084056  C 13.552517361111112 40.773404491883475  13.69357638888889 40.93684678674672  14.0625 41.02401601067378  Z M 16.2109375 41.350900600400266  C 16.558159722222225 41.350900600400266  16.731770833333336 41.23104291750055  16.731770833333336 40.99132755170113  C 16.731770833333336 40.70802757393818  16.54730902777778 40.58816989103847  16.178385416666664 40.631754503002  C 15.831163194444445 40.631754503002  15.657552083333334 40.75161218590171  15.657552083333334 40.99132755170113  C 15.657552083333334 41.27462752946409  15.84201388888889 41.39448521236379  16.2109375 41.350900600400266  Z M 18.1640625 41.12208138759173  C 18.511284722222225 41.034912163664664  18.663194444444446 40.88236602179231  18.619791666666664 40.66444296197465  C 18.576388888888893 40.42472759617523  18.381076388888893 40.32666221925729  18.033854166666664 40.37024683122081  C 17.686631944444446 40.435623749166105  17.534722222222225 40.59906604402935  17.578125 40.86057371581054  C 17.62152777777778 41.12208138759173  17.81684027777778 41.2092506115188  18.1640625 41.12208138759173  Z " fill-rule="nonzero" fill="#000000" stroke="none" transform="matrix(1 0 0 1 1150 160 )" />
  </g>
</svg>