<?xml version="1.0" encoding="utf-8"?>
<svg version="1.1" xmlns:xlink="http://www.w3.org/1999/xlink" width="50px" height="50px" xmlns="http://www.w3.org/2000/svg">
  <g transform="matrix(1 0 0 1 -1077 -160 )">
    <path d="M 38.57421875 21.337890625  C 39.81119791666667 20.111762152777775  40.4296875 18.63064236111111  40.4296875 16.89453125  C 40.4296875 15.158420138888884  39.81119791666667 13.677300347222216  38.57421875 12.451171875  C 37.33723958333333 11.225043402777773  35.85069444444445 10.611979166666668  34.11458333333333 10.611979166666668  C 32.37847222222223 10.611979166666668  30.897352430555557 11.23046875  29.671223958333332 12.467447916666668  C 28.445095486111114 13.704427083333332  27.832031250000007 15.180121527777773  27.83203125 16.89453125  C 27.832031250000007 18.63064236111111  28.445095486111114 20.111762152777775  29.671223958333332 21.337890625  C 30.897352430555557 22.56401909722222  32.37847222222223 23.177083333333332  34.11458333333333 23.177083333333332  C 35.85069444444445 23.177083333333332  37.33723958333333 22.56401909722222  38.57421875 21.337890625  Z M 18.684895833333336 31.461588541666664  C 19.943576388888893 32.70941840277778  20.572916666666664 34.23394097222222  20.572916666666664 36.03515625  C 20.572916666666664 37.83637152777777  19.943576388888893 39.36089409722223  18.684895833333336 40.60872395833333  C 17.42621527777778 41.85655381944444  15.907118055555557 42.48046875  14.127604166666666 42.48046875  C 12.91232638888889 42.48046875  11.794704861111112 42.16579861111111  10.774739583333332 41.53645833333333  C 9.754774305555557 40.90711805555556  8.973524305555557 40.07161458333333  8.430989583333332 39.02994791666667  C 9.559461805555557 39.46397569444444  10.622829861111112 39.89800347222223  11.62109375 40.33203125  C 12.923177083333334 40.85286458333333  14.225260416666668 40.83658854166667  15.52734375 40.283203125  C 16.829427083333336 39.72981770833333  17.751736111111114 38.79123263888889  18.294270833333336 37.467447916666664  C 18.815104166666664 36.165364583333336  18.798828125 34.86328125  18.245442708333336 33.561197916666664  C 17.692057291666664 32.259114583333336  16.753472222222225 31.34765625  15.4296875 30.826822916666664  L 12.760416666666666 29.752604166666664  C 13.237847222222223 29.64409722222222  13.693576388888893 29.58984375  14.127604166666666 29.58984375  C 15.907118055555557 29.58984375  17.42621527777778 30.213758680555557  18.684895833333336 31.461588541666664  Z M 47.24934895833333 2.7506510416666687  C 49.08311631944444 4.584418402777773  50 6.792534722222215  50 9.375  L 50 40.625  C 50 43.20746527777777  49.08311631944444 45.41558159722223  47.24934895833333 47.24934895833333  C 45.41558159722223 49.08311631944444  43.207465277777786 50  40.625 50  L 9.375 50  C 6.792534722222222 50  4.584418402777779 49.08311631944444  2.750651041666667 47.24934895833333  C 0.9168836805555555 45.41558159722223  0 43.20746527777777  0 40.625  L 0 35.64453125  L 5.598958333333334 37.890625  C 6.032986111111111 39.88715277777777  7.047526041666667 41.53645833333333  8.642578125 42.83854166666667  C 10.237630208333332 44.140625  12.065972222222223 44.79166666666667  14.127604166666666 44.79166666666667  C 16.384548611111114 44.79166666666667  18.348524305555557 44.03211805555556  20.01953125 42.51302083333333  C 21.690538194444446 40.99392361111111  22.634548611111114 39.11675347222223  22.8515625 36.881510416666664  L 34.08203125 28.678385416666664  C 37.33723958333333 28.678385416666664  40.10959201388889 27.53363715277778  42.39908854166667 25.244140625  C 44.68858506944445 22.95464409722222  45.83333333333333 20.19314236111111  45.83333333333333 16.959635416666668  C 45.83333333333333 13.704427083333332  44.68858506944445 10.932074652777773  42.39908854166667 8.642578125  C 40.10959201388889 6.353081597222215  37.33723958333333 5.208333333333331  34.08203125 5.208333333333331  C 30.870225694444446 5.208333333333331  28.125 6.342230902777773  25.846354166666668 8.610026041666668  C 23.567708333333336 10.877821180555552  22.40668402777778 13.617621527777773  22.36328125 16.829427083333332  L 15.0390625 27.311197916666664  C 14.843750000000004 27.28949652777778  14.539930555555557 27.278645833333336  14.127604166666666 27.278645833333336  C 12.5 27.278645833333336  11.013454861111112 27.68012152777778  9.66796875 28.483072916666664  L 0 24.609375  L 0 9.375  C 0 6.792534722222215  0.9168836805555555 4.584418402777773  2.750651041666667 2.7506510416666687  C 4.584418402777779 0.9168836805555525  6.792534722222222 0  9.375 0  L 40.625 0  C 43.207465277777786 0  45.41558159722223 0.9168836805555525  47.24934895833333 2.7506510416666687  Z M 39.66471354166667 11.376953125  C 41.19466145833333 12.906901041666668  41.95963541666667 14.767795138888884  41.95963541666667 16.959635416666668  C 41.95963541666667 19.129774305555554  41.189236111111114 20.979817708333332  39.6484375 22.509765625  C 38.10763888888889 24.039713541666668  36.25217013888889 24.8046875  34.08203125 24.8046875  C 31.91189236111111 24.8046875  30.061848958333332 24.039713541666668  28.531901041666668 22.509765625  C 27.001953125 20.979817708333332  26.236979166666668 19.129774305555554  26.236979166666668 16.959635416666668  C 26.236979166666668 14.789496527777773  27.001953125 12.934027777777773  28.531901041666668 11.393229166666668  C 30.061848958333332 9.852430555555552  31.91189236111111 9.08203125  34.08203125 9.08203125  C 36.273871527777786 9.08203125  38.134765625 9.847005208333332  39.66471354166667 11.376953125  Z " fill-rule="nonzero" fill="#000000" stroke="none" transform="matrix(1 0 0 1 1077 160 )" />
  </g>
</svg>