<?xml version="1.0" encoding="utf-8"?>
<svg version="1.1" xmlns:xlink="http://www.w3.org/1999/xlink" width="61px" height="49px" xmlns="http://www.w3.org/2000/svg">
  <g transform="matrix(1 0 0 1 -992 -160 )">
    <path d="M 60.714211348256114 3.126709206927983  L 60.90473711608537 3.57338195077484  C 61.39163630053792 5.479185657854755  59.80392156862746 9.856578547553932  56.14159292035398 16.70556061987238  C 55.63352420614264 17.65846247341233  54.94551448898144 18.92403524764509  54.07756376887038 20.50227894257065  C 53.23078257851814 22.020966271649954  52.64862051015097 23.092980856882406  52.33107756376887 23.718322698268004  C 52.01353461738678 24.3436645396536  51.690699288564986 25.080674567000912  51.36257157730349 25.929352780309937  C 51.034443866042 26.778030993618962  50.907426687489156 27.403372835004557  50.98152004164498 27.805378304466725  C 51.055613395800805 28.207383773928896  51.19321533923305 28.721057429352783  51.394325871941696 29.346399270738377  C 51.59543640465036 29.971741112123972  51.939441263230954 30.611972044971132  52.4263404476835 31.267092069279855  C 52.91323963213604 31.922212093588566  53.516571230262024 32.71133394105135  54.23633524206143 33.63445761166818  C 54.321013361096654 33.69401397751443  54.373937185493666 33.75357034336067  54.395106715252474 33.81312670920693  C 57.38001041124414 37.71406867213612  59.40170050321014 41.004557885141296  60.46017699115044 43.684594348222426  C 60.523685580426864 43.83348526283804  60.59248655214298 44.01959890610756  60.6665799062988 44.242935278031  C 60.74067326045463 44.46627164995442  60.81476661461045 44.860832573685805  60.88885996876626 45.42661804922516  C 60.9629533229221 45.99240352476451  60.9576609404824 46.498632634457614  60.87298282144716 46.94530537830447  C 60.78830470241194 47.39197812215132  60.523685580426864 47.80142813734428  60.07912545549193 48.17365542388332  C 59.634565330557 48.54588271042236  59.010064202672226 48.73199635369188  58.20562207183758 48.73199635369188  L 50.07652264445601 48.91066545123063  C 49.568453930244665 49.05955636584624  48.9757070969981 48.985110908538445  48.298282144716296 48.687329079307204  C 47.6208571924345 48.389547250075964  47.070449418705536 48.061987237921606  46.647058823529406 47.704649042844125  L 46.011972930765225 47.16864175022789  C 45.37688703800104 46.54329990884229  44.63595349644282 45.590398055302344  43.78917230609058 44.30993618960802  C 42.94239111573833 43.0294743239137  42.21733472149922 41.875569735642664  41.614003123373244 40.8482224247949  C 41.01067152524727 39.82087511394713  40.36500086760368 38.957307809176534  39.676991150442475 38.25752051048314  C 38.98898143328128 37.55773321178973  38.390942217595004 37.326952294135516  37.88287350338366 37.565177757520516  C 37.81936491410723 37.59495594044364  37.734686795072015 37.647067760559096  37.62883914627798 37.72151321786691  C 37.52299149748395 37.79595867517471  37.3430504945341 38.01185050136736  37.08901613742842 38.36918869644485  C 36.83498178032275 38.72652689152233  36.60740933541558 39.1657550896384  36.40629880270693 39.68687329079307  C 36.20518826999827 40.20799149194774  36.025247267048414 40.98222424794895  35.86647579385737 42.00957155879672  C 35.70770432066632 43.03691886964448  35.6389033489502 44.19082345791552  35.66007287870901 45.47128532360984  C 35.66007287870901 45.9179580674567  35.6230262016311 46.327408082649654  35.54893284747527 46.6996353691887  C 35.47483949331945 47.07186265572774  35.39545375672393 47.347310847766636  35.31077563768871 47.52597994530538  L 35.183758459135866 47.7493163172288  C 34.80270692347735 48.31510179276816  34.241714384869 48.64266180492251  33.50078084331077 48.73199635369188  L 29.84903695991671 48.73199635369188  C 28.34600034704147 48.85110908538438  26.80062467464862 48.60543907626862  25.212909942738158 47.99498632634458  C 23.625195210827695 47.38453357642054  22.233298629186187 46.595411728957764  21.03722019781364 45.627620783956246  C 19.841141766441094 44.65982983895472  18.75091098386257 43.67714980249164  17.766527850078084 42.679580674567  C 16.782144716293597 41.68201154664236  16.03591879229568 40.82588878760255  15.527850078084331 40.11121239744759  L 14.7339927121291 39.039197812215136  C 14.52229741454104 38.741415982983895  14.231216380357456 38.294743239137034  13.860749609578345 37.69917958067457  C 13.490282838799237 37.103615922212086  12.733472149921916 35.74870859920996  11.590317542946384 33.63445761166818  C 10.44716293597085 31.5202066241264  9.325177858754122 29.271953813430567  8.2243623112962 26.889699179580674  C 7.123546763838279 24.507444545730777  5.826913066111401 21.36584624734123  4.334461218115565 17.464904284412032  C 2.842009370119729 13.563962321482832  1.4606975533576263 9.514129443938014  0.1905257678292556 5.315405651777574  C 0.06350858927641853 4.838954725007592  0 4.436949255545423  0 4.109389243391068  C 0 3.7818292312367032  0.031754294638209266 3.5436037678517147  0.0952628839146278 3.3947128532360975  L 0.22228006246746485 3.126709206927983  C 0.5398230088495575 2.5609237313886344  1.1431546069755336 2.278030993618963  2.032274856845393 2.278030993618963  L 10.732951587714732 2.1886964448495916  C 10.986985944820406 2.2482528106958317  11.230435537046677 2.345031905195987  11.463300364393545 2.479033728350047  C 11.696165191740414 2.6130355515041015  11.865521429810864 2.739592828927372  11.971369078604894 2.8587055606198746  L 12.13014055179594 2.992707383773929  C 12.468853027936838 3.3202673959282833  12.722887385042512 3.796718322698266  12.892243623112963 4.422060164083866  C 13.315634218289087 5.910969310240043  13.802533402741627 7.451990276511694  14.352941176470589 9.045123062898817  C 14.90334895019955 10.638255849285922  15.337324310255077 11.851716803403217  15.65486725663717 12.685505925250686  L 16.162935970848515 13.980856882406563  C 16.7768523338539 15.76754785779398  17.369599167100468 17.316013369796416  17.941176470588236 18.626253418413857  C 18.512753774076 19.936493467031294  19.026114870727056 20.95639623214828  19.481259760541384 21.685961713764815  C 19.93640465035572 22.415527195381337  20.375672392850948 22.98875721665147  20.799062988027067 23.40565177757521  C 21.222453583203194 23.822546338498935  21.5823355891029 24.030993618960803  21.878709005726186 24.030993618960803  C 22.175082422349472 24.030993618960803  22.460871074093355 23.956548161652986  22.736074960957833 23.807657247037376  C 22.778414020475445 23.77787906411425  22.83133784487246 23.703433606806442  22.89484643414888 23.58432087511395  C 22.958355023425298 23.465208143421446  23.085372201978135 23.137648131267092  23.275897969807392 22.601640838650866  C 23.466423737636646 22.06563354603464  23.60931806350859 21.36584624734123  23.704580947423217 20.50227894257065  C 23.799843831337846 19.63871163780006  23.900399097692176 18.43269522941355  24.006246746486205 16.88422971741112  C 24.112094395280238 15.335764205408687  24.112094395280238 13.474627772713461  24.006246746486205 11.300820419325433  C 23.963907686968597 10.109693102400483  23.868644803053968 9.022789425706474  23.72045809474232 8.040109389243389  C 23.57227138643068 7.057429352780309  23.424084678119037 6.3725311455484634  23.275897969807392 5.985414767547858  L 23.085372201978135 5.449407474931629  C 22.556133958007983 4.436949255545423  21.65642894325872 3.7967183226982604  20.38625715773035 3.528714676390157  C 20.111053270865867 3.469158310543906  20.163977095262883 3.111820115466415  20.545028630921394 2.4567000911577  C 20.883741107062296 1.8909146156183516  21.28596217247961 1.4442418717714944  21.75169182717335 1.11668185961714  C 22.873676904390077 0.3424491036159174  25.40343571056741 -0.014889091461568249  29.340968245705362 0.04466727438468299  C 31.076869685927466 0.07444545730780316  32.50581294464689 0.26800364630811424  33.62779802186361 0.6253418413855945  C 34.05118861703974 0.7742327560012117  34.40577824049974 0.975235490732296  34.69156689224363 1.228350045578853  C 34.97735554398751 1.4814646004253933  35.19434322401528 1.838802795502879  35.34252993232691 2.3003646308113046  C 35.49071664063856 2.7619264661197187  35.60185667187229 3.2383773928897015  35.67595002602811 3.7297174111212414  C 35.75004338018394 4.2210574293527765  35.78709005726184 4.898511090853837  35.78709005726184 5.762078395624432  C 35.78709005726184 6.625645700395014  35.776505292382446 7.444545730780915  35.75533576262363 8.218778486782131  C 35.73416623286484 8.993011242783343  35.70770432066632 10.042692190823454  35.67595002602811 11.367821330902462  C 35.6441957313899 12.692950470981465  35.6283185840708 13.921300516560313  35.6283185840708 15.052871467639015  C 35.6283185840708 15.38043147979337  35.6177338191914 16.00577332117897  35.596564289432585 16.92889699179581  C 35.575394759673785 17.852020662412638  35.570102377234086 18.56669705256761  35.58068714211348 19.072926162260714  C 35.59127190699289 19.57915527195381  35.6283185840708 20.182163476147064  35.69182717334722 20.881950774840472  C 35.75533576262363 21.58173807353388  35.87706055873677 22.162412640534793  36.05700156168662 22.623974475843212  C 36.23694256463648 23.08553631115162  36.47509977442304 23.45031905195989  36.771473191046326 23.718322698268004  C 36.94082942911678 23.77787906411425  37.120770432066635 23.837435429960497  37.311296199895885 23.89699179580675  C 37.50182196772514 23.956548161652986  37.777025854589624 23.792768155575814  38.13690786048933 23.40565177757521  C 38.49678986638904 23.018535399574596  38.89901093180635 22.50486174415071  39.34357105674128 21.864630811303556  C 39.788131181676206 21.224399878456396  40.33853895540518 20.22683075053175  40.994794377928166 18.871923427529627  C 41.651049800451155 17.5170161045275  42.370813812250574 15.916438772409599  43.15408641332639 14.070191431175935  C 44.42425819885476 10.973260407171066  45.55682804095089 7.623214828319652  46.551795939614784 4.020054694621697  C 46.63647405865001 3.7222728653904573  46.74232170744404 3.461713764813127  46.86933888599688 3.2383773928897015  C 46.996356064549715 3.01504102096627  47.112788478223145 2.8587055606198746  47.21863612701718 2.769371011850503  L 47.34565330557002 2.635369188696443  L 47.50442477876106 2.52370100273473  C 47.50442477876106 2.52370100273473  47.64202672219331 2.479033728350047  47.91723060905778 2.389699179580676  C 48.192434495922264 2.3003646308113046  48.40412979351033 2.29292008508052  48.55231650182197 2.367365542388334  L 57.697553357626234 2.278030993618963  C 58.52316501821968 2.129140079003335  59.200589970501476 2.1663628076572445  59.72982821447163 2.389699179580676  C 60.259066458441794 2.6130355515041015  60.58719416970329 2.8587055606198746  60.714211348256114 3.126709206927983  Z " fill-rule="nonzero" fill="#000000" stroke="none" transform="matrix(1 0 0 1 992 160 )" />
  </g>
</svg>