<?xml version="1.0" encoding="utf-8"?>
<svg version="1.1" xmlns:xlink="http://www.w3.org/1999/xlink" width="50px" height="50px" xmlns="http://www.w3.org/2000/svg">
  <g transform="matrix(1 0 0 1 -915 -159 )">
    <path d="M 30.91517857142857 37.527901785714285  C 32.10565476190476 38.19754464285714  32.859002976190474 37.844122023809526  33.175223214285715 36.46763392857143  L 37.276785714285715 17.13169642857143  C 37.44419642857143 16.31324404761904  37.34654017857143 15.72730654761904  36.983816964285715 15.37388392857143  C 36.62109375 15.020461309523808  36.1421130952381 14.955357142857146  35.546875 15.17857142857143  L 11.439732142857142 24.46986607142857  C 10.900297619047619 24.674479166666664  10.532924107142858 24.906994047619047  10.337611607142858 25.167410714285715  C 10.142299107142858 25.42782738095238  10.119047619047619 25.674293154761905  10.267857142857142 25.906808035714285  C 10.416666666666668 26.139322916666664  10.714285714285714 26.320684523809522  11.160714285714286 26.45089285714286  L 17.327008928571427 28.37611607142857  L 31.640625 19.363839285714285  C 32.03125 19.103422619047617  32.32886904761905 19.04761904761904  32.533482142857146 19.19642857142857  C 32.663690476190474 19.289434523809522  32.6264880952381 19.42894345238095  32.421875 19.614955357142854  L 20.842633928571427 30.078125  L 20.396205357142858 36.43973214285714  C 20.824032738095237 36.43973214285714  21.242559523809526 36.235119047619044  21.651785714285715 35.82589285714286  L 24.665178571428573 32.92410714285714  L 30.91517857142857 37.527901785714285  Z M 48.018973214285715 15.29017857142857  C 49.33965773809524 18.377976190476186  50 21.614583333333332  50 25  C 50 28.385416666666664  49.33965773809524 31.622023809523807  48.018973214285715 34.70982142857143  C 46.6982886904762 37.797619047619044  44.92187500000001 40.457589285714285  42.689732142857146 42.68973214285714  C 40.457589285714285 44.921875  37.79761904761905 46.69828869047619  34.70982142857143 48.018973214285715  C 31.622023809523814 49.33965773809524  28.385416666666668 50  25 50  C 21.614583333333336 50  18.377976190476193 49.33965773809524  15.290178571428573 48.018973214285715  C 12.202380952380953 46.69828869047619  9.542410714285714 44.921875  7.310267857142858 42.68973214285714  C 5.078125 40.457589285714285  3.3017113095238098 37.797619047619044  1.9810267857142856 34.70982142857143  C 0.6603422619047619 31.622023809523807  0 28.385416666666664  0 25  C 0 21.614583333333332  0.6603422619047619 18.377976190476186  1.9810267857142856 15.29017857142857  C 3.3017113095238098 12.202380952380947  5.078125 9.542410714285715  7.310267857142858 7.310267857142855  C 9.542410714285714 5.078125  12.202380952380953 3.3017113095238084  15.290178571428573 1.981026785714285  C 18.377976190476193 0.6603422619047616  21.614583333333336 0  25 0  C 28.385416666666668 0  31.622023809523814 0.6603422619047616  34.70982142857143 1.981026785714285  C 37.79761904761905 3.3017113095238084  40.457589285714285 5.078125  42.689732142857146 7.310267857142855  C 44.92187500000001 9.542410714285715  46.6982886904762 12.202380952380947  48.018973214285715 15.29017857142857  Z " fill-rule="nonzero" fill="#000000" stroke="none" transform="matrix(1 0 0 1 915 159 )" />
  </g>
</svg>